HIERARCHY
ROOT Hips
{
   OFFSET 0.00000 0.00000 0.00000
   CHANNELS 6 Xposition Yposition Zposition Zrotation Xrotation Yrotation
   JOINT Spine
   {
      OFFSET 0.000000 11.890501 0.000000
      CHANNELS 3 Zrotation Xrotation Yrotation
      JOINT Spine1
      {
         OFFSET -0.000000 25.657401 0.127660
         CHANNELS 3 Zrotation Xrotation Yrotation
         JOINT HEad
         {
            OFFSET 0.000000 8.734161 0.011340
            CHANNELS 3 Zrotation Xrotation Yrotation
            End Site
            {
               OFFSET -0.290000 12.774200 2.513950
            }
         }
         JOINT LeftShoulder1
         {
            OFFSET 8.990000 -0.362250 -0.220000
            CHANNELS 3 Zrotation Xrotation Yrotation
            JOINT LeftArm
            {
               OFFSET 10.282700 -0.003380 0.322120
               CHANNELS 3 Zrotation Xrotation Yrotation
               JOINT LeftForeArm
               {
                  OFFSET 32.766900 0.099140 -1.424340
                  CHANNELS 3 Zrotation Xrotation Yrotation
                  JOINT LeftHand
                  {
                     OFFSET 27.564301 0.085360 1.022160
                     CHANNELS 3 Zrotation Xrotation Yrotation
                     End Site
                     {
                        OFFSET 16.744301 -0.600000 1.502910
                     }
                  }
               }
            }
         }
         JOINT RightShoulder
         {
            OFFSET -8.990000 -0.362250 -0.220000
            CHANNELS 3 Zrotation Xrotation Yrotation
            JOINT RightArm
            {
               OFFSET -10.282700 -0.003380 0.322120
               CHANNELS 3 Zrotation Xrotation Yrotation
               JOINT RightForeArm
               {
                  OFFSET -32.897098 0.099140 -1.424340
                  CHANNELS 3 Zrotation Xrotation Yrotation
                  JOINT RightHand
                  {
                     OFFSET -27.492101 0.085360 1.022160
                     CHANNELS 3 Zrotation Xrotation Yrotation
                     End Site
                     {
                        OFFSET -16.631201 -0.600000 1.502910
                     }
                  }
               }
            }
         }
      }
   }
   JOINT LeftUpLeg
   {
      OFFSET 8.945800 -8.667070 0.101650
      CHANNELS 3 Zrotation Xrotation Yrotation
      JOINT LeftLeg
      {
         OFFSET 0.000000 -44.422697 1.372700
         CHANNELS 3 Zrotation Xrotation Yrotation
         JOINT LeftFoot
         {
            OFFSET -0.253550 -42.092399 -1.460590
            CHANNELS 3 Zrotation Xrotation Yrotation
            JOINT LeftToes
            {
               OFFSET -0.040000 -4.415090 8.499099
               CHANNELS 3 Zrotation Xrotation Yrotation
               End Site
               {
                  OFFSET 0.080000 -0.047450 9.779790
               }
            }
         }
      }
   }
   JOINT RightUpLeg
   {
      OFFSET -8.945800 -8.667070 0.101650
      CHANNELS 3 Zrotation Xrotation Yrotation
      JOINT RightLeg
      {
         OFFSET 0.000000 -44.422697 1.372700
         CHANNELS 3 Zrotation Xrotation Yrotation
         JOINT RightFoot
         {
            OFFSET 0.253550 -42.092399 -1.460590
            CHANNELS 3 Zrotation Xrotation Yrotation
            JOINT RightToes
            {
               OFFSET 0.040000 -4.415090 8.499099
               CHANNELS 3 Zrotation Xrotation Yrotation
               End Site
               {
                  OFFSET -0.080000 -0.137450 9.779790
               }
            }
         }
      }
   }
}
MOTION
Frames: 16
Frame Time: 0.016670
-62.091846 92.240885 -130.553196 -8.699140 -16.197898 -15.643109 -10.922873 24.904669 150.560851 32.284648 -24.599579 -132.020535 -2.118058 7.376684 1.095796 1.257710 -24.128883 5.275026 -69.505637 -29.184490 -81.705339 367.837242 26.475855 -62.439916 -73.083980 -44.204277 -88.021686 -61.008998 41.822092 53.583210 139.971340 81.852905 163.891523 16.046758 131.260554 39.778161 -11.127154 -18.136616 41.226400 26.129816 -18.864819 -116.678633 -10.678664 -24.653387 113.256756 -36.186288 7.991448 44.525549 22.502881 -5.577946 -28.439593 -20.522167 6.317692 2.770016 19.677159 23.288862 -6.259361 -51.459431 -19.496039 43.394825 19.173154 -22.285273 -47.545056
-61.085128 92.504166 -130.261839 -9.839594 -16.116309 -22.645808 -10.519455 22.900159 143.606380 30.420051 -24.766503 -132.190265 -1.208350 2.853985 9.672327 -3.078952 -21.740216 14.293761 -69.595748 -29.200322 -82.222664 360.612241 26.892560 -56.389123 -71.864259 -43.980961 -84.877736 -64.974210 37.971778 62.513805 146.551735 79.874315 156.220756 9.436634 128.575401 43.420315 -17.473895 -14.155693 27.222803 26.778240 -16.748961 -120.709346 -11.956631 -25.338661 117.649899 -38.325779 7.875424 43.724750 22.674727 -7.424836 -26.117177 -21.327510 4.690391 0.016286 18.060958 23.307496 -2.276352 -51.781904 -19.513441 43.993129 20.234268 -21.237753 -44.143554
-59.882878 92.602995 -129.685286 -10.170091 -15.615634 -27.976221 -11.364057 25.911540 137.733182 32.221137 -21.253810 -130.982087 -0.617308 -2.548956 18.537545 1.073892 -18.400815 10.068403 -83.817431 -39.110309 -95.309477 356.515985 26.406802 -54.502990 -68.859017 -47.433413 -80.133207 -62.388526 40.902420 65.838085 147.697745 81.970944 151.064236 8.011864 133.413921 50.288231 -12.679899 -19.794564 35.899304 26.894135 -15.465850 -124.755932 -11.178130 -27.221756 123.405904 -39.418753 6.649693 42.760116 22.472219 -9.580898 -24.150839 -22.325575 2.830514 -3.449171 15.736459 22.807014 0.972033 -52.050198 -19.314045 45.022104 21.340791 -20.892724 -38.912564
-58.515243 92.606419 -128.726824 -11.217786 -14.798812 -34.176784 -11.834256 24.746595 130.445876 28.877125 -22.413829 -132.201235 -0.678008 -7.173872 27.541543 0.008043 -20.709728 15.349537 -73.143902 -44.106346 -84.435502 358.749703 16.529328 -49.109846 -80.005455 -52.641620 -56.300921 -67.997525 37.077183 74.621955 153.597294 79.462544 146.068172 8.286973 136.963721 56.399778 -17.804242 -22.401895 38.970768 27.309279 -13.384872 -128.303246 -9.971777 -28.707640 129.289867 -39.569116 4.254758 41.804600 21.804790 -12.323996 -22.252905 -22.602332 1.603241 -7.916689 13.334533 21.966392 5.580782 -52.511153 -18.650706 46.620897 14.267021 -19.510150 -53.109621
-57.036742 92.433213 -127.536648 -12.631743 -14.842665 -41.708154 -10.622543 24.596119 124.848126 29.101493 -20.489763 -131.569032 -1.029030 -11.448910 35.363680 2.131230 -22.408223 17.950248 -57.405288 -47.596692 -72.855271 356.685428 6.764791 -41.717115 -74.310163 -85.540060 -67.575487 -67.373792 39.141775 73.184070 151.363713 80.068306 143.056086 8.649176 142.120172 59.956794 -17.081815 -25.349325 44.208095 27.626333 -9.503303 -131.371845 -7.751544 -29.984527 134.807649 -38.972189 2.492280 41.486921 21.353104 -14.243875 -20.456814 -23.683768 0.742047 -12.491923 12.376429 21.895609 9.825434 -52.165218 -19.246040 47.143581 16.579697 -21.556775 -41.146627
-55.569615 92.137345 -126.101339 -13.462442 -12.144367 -48.307657 -11.013736 24.037688 121.413702 27.019134 -19.793449 -131.626433 -0.611749 -14.556156 41.806010 5.565775 -21.696125 9.590713 -54.374648 -62.192301 -61.518523 352.578026 -5.776744 -31.147138 -87.782124 -87.469294 -47.684173 -72.982019 36.334130 79.506947 153.709801 80.221105 140.520801 8.947585 143.826695 61.646350 -21.259900 -27.319590 43.584260 29.016754 -7.193917 -133.959899 -4.341016 -30.223317 140.118285 -37.783090 0.440339 41.278774 20.921325 -15.892443 -18.652364 -23.451026 -0.806003 -17.513742 12.643965 20.071383 13.999273 -51.533494 -19.099635 48.414157 13.756861 -22.363499 -41.702509
-54.170465 91.812142 -124.629391 -16.013209 -12.835434 -53.547583 -12.378155 20.765443 120.631236 24.395615 -20.054443 -134.400761 0.363467 -17.757326 46.926982 3.524133 -22.492102 9.592671 -30.524802 -60.132576 -37.343479 342.632505 -18.856909 -28.454104 -80.070895 -83.315153 -53.704695 -78.588525 33.737979 84.047219 154.008471 79.486531 137.869622 7.820315 146.597347 60.509930 -20.582350 -29.202320 44.338105 28.803335 -3.071567 -137.426753 -2.591125 -31.193754 144.271504 -36.385562 -0.433761 40.984437 20.794741 -16.819189 -17.611352 -24.195699 0.853583 -21.964987 12.628833 19.842202 17.600631 -50.447883 -18.420716 49.656694 13.126104 -22.961269 -37.421158
-53.025173 91.480683 -123.248184 -15.939928 -13.888667 -54.589201 -10.924956 19.698001 122.662274 21.681694 -22.397244 -141.184409 1.397237 -20.143724 50.646618 1.052248 -25.431825 9.104411 -18.090758 -53.941521 -25.529606 334.584466 -35.370329 -26.659010 -89.101600 -96.523625 -44.005618 -79.761153 36.363862 89.352746 154.758986 81.478556 136.658056 7.301439 151.861347 64.278965 -24.121257 -30.947464 46.051051 26.860831 -2.556406 -139.566009 -1.332487 -31.733622 146.742544 -34.683468 -0.343514 40.667940 20.976394 -16.998283 -17.266536 -26.401430 2.017736 -26.903029 12.291917 19.169293 20.236093 -49.180798 -17.773288 50.181229 11.446179 -23.157102 -36.836822
-52.062120 91.338337 -121.800078 -14.776068 -12.483512 -54.655471 -10.014910 18.323468 125.387739 19.709327 -24.931519 -145.556249 1.405189 -22.237981 53.186598 1.634694 -25.914732 8.855998 -8.414692 -44.340304 -20.691351 324.772736 -52.057615 -26.457672 -74.438304 -87.726554 -44.440083 -80.981298 40.455897 93.147593 154.159760 82.623583 134.871292 5.583241 157.961922 65.701905 -24.745755 -31.070647 48.361834 26.058586 -3.462025 -140.297372 -0.528914 -31.107717 148.124892 -32.708970 -0.150961 40.204846 21.185701 -16.915004 -17.403056 -27.248049 1.514646 -31.491912 12.201122 18.135064 22.694249 -47.583384 -17.222570 50.925610 10.325617 -22.927220 -35.153003
-51.149377 91.370877 -120.686987 -11.934760 -14.987301 -55.572410 -11.101517 19.252094 131.392281 18.828475 -27.773578 -144.107552 -0.624720 -24.634725 53.579573 -8.009767 -27.605996 -0.263581 -3.550628 -38.320213 -29.853001 317.330480 -66.325952 -27.256257 -78.027070 -84.030643 -40.709574 -76.439263 44.616411 99.018714 155.377405 88.054526 135.399990 5.241672 171.211519 73.365070 -27.574322 -31.272247 48.800093 21.402900 -3.113631 -139.467012 -0.387725 -30.637879 148.274172 -30.681579 1.116692 39.816291 21.478238 -16.237388 -18.085858 -31.503868 0.164993 -34.979506 10.346904 18.166382 24.966129 -45.768572 -16.938994 51.570800 8.937954 -22.425543 -34.442165
-50.166997 91.369942 -119.461620 -14.272950 -13.203813 -60.537647 -14.363082 18.707917 133.499544 17.836788 -28.224152 -140.359144 -1.170775 -27.879884 52.011348 -14.500287 -26.407887 -7.621866 0.652056 -30.521260 -35.763519 315.165637 -80.519270 -37.484467 -62.454915 -83.280449 -57.545512 -72.361387 49.174179 101.658193 154.563506 91.355754 136.392553 5.645681 182.194422 78.545809 -28.406154 -31.144481 48.974307 22.768886 -1.178048 -138.256348 -2.290406 -30.891358 147.950435 -28.509148 2.380969 39.801992 21.520608 -15.395301 -18.743781 -29.504689 -1.153391 -36.325135 9.518741 18.726651 26.504686 -43.879413 -16.267859 52.971450 7.672497 -21.362636 -33.296291
-49.271955 91.534117 -118.263357 -14.653399 -11.040274 -62.964980 -14.721745 19.579489 138.344840 17.442789 -25.865947 -138.893809 -2.269924 -30.502160 48.684772 -14.238696 -25.538081 -14.824671 1.596316 -21.483634 -36.429494 312.018887 -92.345722 -47.598717 -72.975708 -80.341924 -43.686737 -66.832185 55.039396 101.679489 153.395940 95.368804 138.327559 5.207332 190.202819 79.002455 -29.633930 -30.657512 44.925084 24.111644 -1.168166 -135.748248 -3.931417 -31.342539 146.704199 -26.606660 3.111573 39.164366 20.991196 -15.595989 -19.521422 -27.135464 -3.112852 -36.703316 7.521444 18.040235 26.629583 -41.810805 -16.174982 53.515533 6.285310 -20.638868 -32.911451
-48.396243 91.785363 -117.181996 -15.466104 -9.432104 -63.900402 -14.692362 18.608268 147.405769 16.596407 -26.675145 -139.941765 -6.035268 -28.809868 43.634585 -10.857235 -23.939236 -21.774858 6.037260 -15.818991 -35.548788 315.387318 -95.112467 -53.698353 -64.558381 -78.708081 -52.428098 -60.594515 58.761750 99.637625 150.701007 100.827136 141.666880 8.091236 194.454270 80.870437 -29.440923 -29.969357 44.950646 25.848429 -1.368873 -132.406304 -5.964375 -32.219266 144.771378 -24.942627 3.811987 38.553085 19.904807 -16.671742 -20.200860 -25.041741 -4.243341 -35.238230 4.823767 19.046155 26.804058 -47.985463 -18.204710 53.465105 13.270524 -23.288963 -33.726760
-47.720865 92.067183 -116.395567 -15.570055 -7.012968 -61.744152 -14.037866 22.593315 157.571849 15.754948 -25.686316 -143.709625 -10.725444 -25.513972 37.426226 -5.122022 -19.636398 -25.264103 9.912748 -11.441662 -28.469839 314.414262 -92.969448 -65.362936 -78.180504 -81.641989 -41.490664 -53.701369 62.086249 93.856512 146.872877 106.454372 145.646421 12.196885 196.120317 83.702698 -30.116411 -29.547043 43.598672 28.431776 -2.909772 -128.482470 -7.525018 -32.781199 141.664489 -23.496892 4.066612 37.358785 18.448669 -18.231585 -20.867288 -22.331196 -5.126110 -33.049148 2.736358 19.384821 25.771400 -53.614427 -20.900422 52.982870 20.279252 -24.662515 -34.853492
-47.150902 92.375067 -115.754479 -15.914457 -7.964997 -63.500446 -13.324720 23.738691 165.493448 13.352850 -28.502902 -147.237036 -13.709109 -20.154297 30.576298 -10.131551 -22.111658 -33.709886 11.211593 -12.356542 -22.719294 308.581854 -91.279625 -75.600659 -84.050744 -84.025226 -41.802718 -47.587581 66.000828 86.805892 143.265677 107.588279 148.857074 15.488019 197.979426 84.419178 -31.715072 -29.442435 41.302355 26.982558 -2.072689 -125.234018 -10.507762 -32.745863 138.353637 -22.091675 6.691474 37.452871 17.234032 -18.771909 -21.296473 -21.948053 -6.258441 -31.419420 -1.311997 21.044093 24.568100 -51.889149 -22.633355 52.892046 20.372197 -25.307062 -36.979880
-46.731776 92.656497 -115.380543 -16.258820 -8.897155 -63.904472 -16.578684 22.807170 172.516863 8.696802 -28.951977 -152.204714 -16.389246 -13.670645 23.416265 -18.523309 -22.958288 -40.265867 11.899956 -16.472299 -20.857144 304.649496 -87.863690 -85.841496 -89.661833 -82.558252 -48.170234 -41.370886 70.858104 80.979740 140.603979 107.585438 151.849421 18.950408 197.638217 85.565960 -33.616456 -29.366754 36.751831 25.300738 -2.184215 -122.289414 -13.963523 -31.812904 134.799671 -20.435791 9.309299 37.783309 15.718272 -19.741975 -21.562747 -22.404366 -6.762263 -30.009471 -4.427660 23.035006 24.230366 -49.997739 -24.168898 53.555510 20.289939 -25.191411 -39.350561
